<svg width="163" height="51" viewBox="0 0 163 51" fill="none" xmlns="http://www.w3.org/2000/svg">
<path d="M23.4312 2.89095C29.2572 2.89095 35.115 2.89095 40.941 2.89095C41.4186 2.89095 41.8643 2.92237 42.2463 3.20518C43.1059 3.80222 43.1695 4.93346 42.3736 5.68762C40.3043 7.73014 38.2031 9.77265 36.102 11.8152C25.8826 21.7763 15.6633 31.7375 5.44395 41.7301C5.03008 42.1386 4.55254 42.4529 3.91582 42.39C3.15176 42.3272 2.4832 41.7616 2.45137 41.0074C2.41953 39.342 2.41953 37.6765 2.45137 36.0111C2.45137 35.5397 2.80156 35.2255 3.08809 34.9427C9.42344 28.7209 15.7906 22.4677 22.126 16.2458C24.1953 14.2033 26.2646 12.1922 28.334 10.1497C28.4932 9.99261 28.7797 9.8355 28.6523 9.52126C28.525 9.20703 28.2066 9.3013 27.9838 9.3013C21.8713 9.3013 15.7588 9.3013 9.64629 9.3013C9.07324 9.3013 8.91406 9.48984 8.91406 10.0555C8.9459 13.6691 8.91406 17.3142 8.9459 20.9279C8.9459 21.525 8.75488 21.9649 8.34102 22.4048C6.9084 23.7874 5.47578 25.2015 4.075 26.5841C3.75664 26.8983 3.43828 27.1497 2.96074 26.9298C2.4832 26.7412 2.45137 26.3327 2.45137 25.8928C2.45137 19.3568 2.45137 12.7893 2.45137 6.25324C2.45137 4.24215 3.85215 2.89095 5.92148 2.89095C11.7475 2.85953 17.6053 2.89095 23.4312 2.89095Z" fill="white"/>
<path d="M147.655 26.8669C143.994 26.8669 140.301 26.8669 136.64 26.8669C135.526 26.8669 135.271 27.2754 135.717 28.3124C138.232 33.9371 145.713 35.2884 150.075 30.8891C150.616 30.3235 151.189 30.1035 151.953 30.1035C153.64 30.1349 155.327 30.1035 157.015 30.1035C158.511 30.1035 159.084 31.1091 158.32 32.366C155.71 36.6081 151.985 39.342 147.018 40.159C140.046 41.3216 134.188 39.2477 130.05 33.4658C123.937 24.9187 128.522 12.6322 138.773 9.89833C143.644 8.60997 148.419 8.92421 152.781 11.658C157.747 14.7689 160.358 19.2625 160.358 25.1386C160.358 26.3327 159.848 26.8355 158.67 26.8355C154.977 26.8355 151.316 26.8355 147.655 26.8669C147.655 26.8669 147.655 26.8355 147.655 26.8669ZM143.771 21.7763C145.968 21.7763 148.164 21.7763 150.393 21.7763C150.839 21.7763 151.221 21.6821 151.475 21.2736C151.73 20.8336 151.539 20.488 151.316 20.1109C147.878 14.6432 139.792 14.6118 136.321 20.0795C136.067 20.4566 135.876 20.8336 136.13 21.2736C136.385 21.7135 136.799 21.7763 137.277 21.7763C139.41 21.7763 141.574 21.7763 143.771 21.7763Z" fill="white"/>
<path d="M28.1431 47.6691C22.3171 47.6691 16.5229 47.6691 10.697 47.6691C9.90107 47.6691 9.23251 47.4806 8.91415 46.695C8.5958 45.9409 8.88232 45.3124 9.45537 44.7468C21.6485 32.7745 33.8417 20.8022 46.0349 8.82995C46.8626 8.01295 47.7858 7.9501 48.4862 8.64141C48.8046 8.95565 48.9638 9.33273 48.9638 9.80408C48.9638 11.1239 48.9319 12.4751 48.9638 13.7948C48.9956 14.6118 48.6772 15.2403 48.1042 15.8373C42.2464 21.5878 36.3886 27.3383 30.5308 33.0887C28.0157 35.5397 25.5325 38.0222 23.0175 40.4732C22.8583 40.6303 22.5399 40.756 22.6991 41.1017C22.8583 41.3845 23.1448 41.2902 23.3995 41.2902C29.4802 41.2902 35.5927 41.2902 41.6733 41.2902C42.4374 41.2902 42.4692 41.2588 42.4692 40.4732C42.4692 36.8595 42.4692 33.2458 42.4692 29.6636C42.4692 29.0666 42.6284 28.6266 43.0741 28.2181C44.5386 26.8355 45.9393 25.4215 47.372 23.976C47.6903 23.6617 48.0087 23.4104 48.4544 23.5989C48.9319 23.7874 48.9319 24.1959 48.9319 24.6359C48.9319 31.2033 48.9319 37.7708 48.9319 44.3383C48.9319 46.3179 47.563 47.6691 45.5891 47.6691C39.795 47.6691 33.969 47.6691 28.1431 47.6691Z" fill="white"/>
<path d="M108.338 9.11276C114.482 9.33273 119.703 12.2865 122.664 18.5712C125.625 24.8244 123.651 32.3032 118.048 36.7024C114.1 39.8133 109.579 40.9131 104.645 40.1276C98.6913 39.1849 94.4253 35.9483 92.1013 30.4806C88.5675 22.1534 93.3429 12.4751 102.13 9.86692C103.881 9.36415 105.695 9.14419 108.338 9.11276ZM98.5321 24.6359C98.5321 29.4436 102.512 33.403 107.414 33.403C112.253 33.403 116.233 29.4751 116.265 24.6673C116.297 19.8281 112.317 15.9002 107.414 15.9002C102.512 15.9002 98.5321 19.7967 98.5321 24.6359Z" fill="white"/>
<path d="M72.8088 9.1756C77.1704 9.1756 81.5319 9.1756 85.9252 9.1756C86.8167 9.1756 87.517 9.42698 87.9309 10.2754C88.3129 11.1238 88.1856 11.9094 87.5807 12.6322C82.4551 18.9168 77.3614 25.2015 72.2358 31.4547C72.0129 31.7375 71.7901 32.0203 71.7901 32.3974C71.7583 33.0573 72.2358 33.4658 72.9999 33.4658C77.4569 33.4658 81.9458 33.4658 86.4028 33.4658C87.8036 33.4658 88.1538 33.8115 88.1538 35.1941C88.1538 36.451 88.1538 37.7079 88.1538 38.9649C88.1538 40.0333 87.8036 40.3789 86.6575 40.3789C77.9344 40.3789 69.1795 40.3789 60.4565 40.3789C59.5333 40.3789 58.8329 40.0647 58.419 39.2477C58.0051 38.3678 58.1325 37.5508 58.7692 36.7967C63.9585 30.5749 69.1477 24.353 74.337 18.1627C74.7508 17.6913 75.0055 17.22 74.7508 16.5601C74.5598 16.0887 74.2733 15.9002 73.7321 15.9002C70.3575 15.9002 66.9829 15.9002 63.6083 15.9002C62.2075 15.9002 60.8385 15.9002 59.4377 15.9002C58.5463 15.9002 58.0688 15.4603 58.0688 14.5804C58.037 13.2292 58.037 11.878 58.0688 10.5268C58.0688 9.61552 58.5463 9.20702 59.4377 9.20702C63.8948 9.1756 68.3518 9.1756 72.8088 9.1756Z" fill="white"/>
</svg>
