<svg width="69" height="77" viewBox="0 0 69 77" fill="none" xmlns="http://www.w3.org/2000/svg">
<path d="M56.5296 9.94876C56.2263 9.94876 55.9229 9.87293 55.6575 9.72126C48.3775 5.96751 42.0833 4.37501 34.5379 4.37501C27.0304 4.37501 19.9021 6.15709 13.4183 9.72126C12.5083 10.2142 11.3708 9.87293 10.84 8.96293C10.3471 8.05293 10.6883 6.87751 11.5983 6.38459C18.6508 2.55501 26.3858 0.583344 34.5379 0.583344C42.6142 0.583344 49.6667 2.36543 57.4017 6.34668C58.3496 6.83959 58.6908 7.97709 58.1979 8.88709C57.8567 9.56959 57.2121 9.94876 56.5296 9.94876ZM2.27085 29.855C1.89168 29.855 1.51251 29.7413 1.17126 29.5138C0.299181 28.9071 0.109597 27.7317 0.716264 26.8596C4.47001 21.5513 9.24751 17.3804 14.935 14.4608C26.8408 8.31834 42.0833 8.28043 54.0271 14.4229C59.7146 17.3425 64.4921 21.4754 68.2458 26.7458C68.8525 27.58 68.6629 28.7933 67.7908 29.4C66.9188 30.0067 65.7433 29.8171 65.1367 28.945C61.7242 24.1675 57.4017 20.4138 52.2829 17.7975C41.4008 12.2238 27.4854 12.2238 16.6413 17.8354C11.4846 20.4896 7.1621 24.2813 3.7496 29.0588C3.44626 29.5896 2.87751 29.855 2.27085 29.855ZM25.9688 75.6204C25.4758 75.6204 24.9829 75.4308 24.6417 75.0517C21.3429 71.7529 19.5608 69.6296 17.0204 65.0417C14.4042 60.3779 13.0392 54.6904 13.0392 48.5858C13.0392 37.3246 22.67 28.1488 34.5 28.1488C46.33 28.1488 55.9608 37.3246 55.9608 48.5858C55.9608 49.6475 55.1267 50.4817 54.065 50.4817C53.0033 50.4817 52.1692 49.6475 52.1692 48.5858C52.1692 39.41 44.2446 31.9404 34.5 31.9404C24.7554 31.9404 16.8308 39.41 16.8308 48.5858C16.8308 54.0458 18.0442 59.0888 20.3571 63.1838C22.7838 67.5442 24.4521 69.4021 27.3717 72.3596C28.0921 73.1179 28.0921 74.2933 27.3717 75.0517C26.9546 75.4308 26.4617 75.6204 25.9688 75.6204ZM53.155 68.6059C48.6429 68.6059 44.6617 67.4683 41.4008 65.2313C35.7513 61.4017 32.3767 55.1833 32.3767 48.5858C32.3767 47.5242 33.2108 46.69 34.2725 46.69C35.3342 46.69 36.1683 47.5242 36.1683 48.5858C36.1683 53.9321 38.8983 58.975 43.5242 62.0842C46.2163 63.9042 49.3633 64.7763 53.155 64.7763C54.065 64.7763 55.5817 64.6625 57.0983 64.3971C58.1221 64.2075 59.1079 64.89 59.2975 65.9517C59.4871 66.9754 58.8046 67.9613 57.7429 68.1508C55.5817 68.5679 53.6858 68.6059 53.155 68.6059ZM45.5338 76.4167C45.3821 76.4167 45.1925 76.3788 45.0408 76.3408C39.0121 74.6725 35.0688 72.4354 30.9358 68.3783C25.6275 63.1079 22.7079 56.0933 22.7079 48.5858C22.7079 42.4433 27.9404 37.4383 34.3863 37.4383C40.8321 37.4383 46.0646 42.4433 46.0646 48.5858C46.0646 52.6429 49.5908 55.9417 53.9513 55.9417C58.3117 55.9417 61.8379 52.6429 61.8379 48.5858C61.8379 34.2913 49.515 22.6888 34.3483 22.6888C23.58 22.6888 13.7217 28.6796 9.28543 37.9692C7.80668 41.0404 7.04835 44.6425 7.04835 48.5858C7.04835 51.5433 7.31376 56.2071 9.58876 62.2738C9.96793 63.2596 9.47501 64.3592 8.48918 64.7004C7.50335 65.0796 6.40376 64.5488 6.06251 63.6008C4.2046 58.6338 3.2946 53.7046 3.2946 48.5858C3.2946 44.0358 4.16668 39.9029 5.87293 36.3008C10.9158 25.7221 22.1013 18.8592 34.3483 18.8592C51.6004 18.8592 65.6296 32.1679 65.6296 48.5479C65.6296 54.6904 60.3971 59.6954 53.9513 59.6954C47.5054 59.6954 42.2729 54.6904 42.2729 48.5479C42.2729 44.4908 38.7467 41.1921 34.3863 41.1921C30.0258 41.1921 26.4996 44.4908 26.4996 48.5479C26.4996 55.0317 29.0021 61.0983 33.59 65.6483C37.1921 69.2125 40.6425 71.1842 45.9888 72.6629C47.0125 72.9283 47.5813 73.99 47.3158 74.9758C47.1263 75.8479 46.33 76.4167 45.5338 76.4167Z" fill="white"/>
</svg>
