<svg width="23" height="23" viewBox="0 0 23 23" fill="none" xmlns="http://www.w3.org/2000/svg">
<path d="M14.95 11.5C14.95 12.415 14.5865 13.2925 13.9395 13.9395C13.2925 14.5865 12.415 14.95 11.5 14.95C10.585 14.95 9.70744 14.5865 9.06044 13.9395C8.41344 13.2925 8.04996 12.415 8.04996 11.5C8.04996 11.3033 8.07066 11.1113 8.10631 10.925H6.89996V15.5215C6.89996 15.8412 7.15871 16.1 7.47841 16.1H15.5227C15.6759 16.0997 15.8227 16.0386 15.9309 15.9301C16.0392 15.8217 16.1 15.6747 16.1 15.5215V10.925H14.8936C14.9293 11.1113 14.95 11.3033 14.95 11.5ZM11.5 13.8C11.8021 13.7999 12.1012 13.7403 12.3803 13.6246C12.6594 13.5089 12.913 13.3394 13.1265 13.1257C13.3401 12.9121 13.5095 12.6584 13.6251 12.3792C13.7406 12.1001 13.8 11.8009 13.8 11.4988C13.7999 11.1967 13.7403 10.8976 13.6246 10.6185C13.5089 10.3394 13.3394 10.0858 13.1257 9.87223C12.9121 9.65865 12.6584 9.48926 12.3792 9.37371C12.1001 9.25817 11.8009 9.19874 11.4988 9.19881C10.8887 9.19896 10.3036 9.44149 9.87223 9.87304C9.4409 10.3046 9.19866 10.8898 9.19881 11.5C9.19896 12.1101 9.44149 12.6952 9.87304 13.1265C10.3046 13.5579 10.8898 13.8001 11.5 13.8ZM14.26 9.08496H15.6388C15.7304 9.08496 15.8183 9.04865 15.8832 8.98398C15.9481 8.91932 15.9847 8.83157 15.985 8.73996V7.36111C15.985 7.26931 15.9485 7.18126 15.8836 7.11635C15.8187 7.05143 15.7306 7.01496 15.6388 7.01496H14.26C14.1682 7.01496 14.0801 7.05143 14.0152 7.11635C13.9503 7.18126 13.9138 7.26931 13.9138 7.36111V8.73996C13.915 8.92971 14.0702 9.08496 14.26 9.08496ZM11.5 0.459961C8.57197 0.459961 5.7639 1.6231 3.6935 3.6935C1.6231 5.7639 0.459961 8.57197 0.459961 11.5C0.459961 14.428 1.6231 17.236 3.6935 19.3064C5.7639 21.3768 8.57197 22.54 11.5 22.54C12.9498 22.54 14.3854 22.2544 15.7248 21.6996C17.0642 21.1448 18.2813 20.3316 19.3064 19.3064C20.3316 18.2813 21.1448 17.0642 21.6996 15.7248C22.2544 14.3854 22.54 12.9498 22.54 11.5C22.54 10.0502 22.2544 8.61457 21.6996 7.27514C21.1448 5.9357 20.3316 4.71866 19.3064 3.6935C18.2813 2.66834 17.0642 1.85514 15.7248 1.30033C14.3854 0.745519 12.9498 0.459961 11.5 0.459961ZM17.25 15.9723C17.25 16.675 16.675 17.25 15.9723 17.25H7.02761C6.32496 17.25 5.74996 16.675 5.74996 15.9723V7.02761C5.74996 6.32496 6.32496 5.74996 7.02761 5.74996H15.9723C16.675 5.74996 17.25 6.32496 17.25 7.02761V15.9723Z" fill="white"/>
</svg>
