<svg width="27" height="25" viewBox="0 0 27 25" fill="none" xmlns="http://www.w3.org/2000/svg">
<path d="M9.75 18V7C9.75 6.27065 10.0397 5.57118 10.5555 5.05546C11.0712 4.53973 11.7707 4.25 12.5 4.25H24.875V2.875C24.875 1.3625 23.6375 0.125 22.125 0.125H2.875C2.14565 0.125 1.44618 0.414731 0.930456 0.930456C0.414731 1.44618 0.125 2.14565 0.125 2.875V22.125C0.125 22.8543 0.414731 23.5538 0.930456 24.0695C1.44618 24.5853 2.14565 24.875 2.875 24.875H22.125C23.6375 24.875 24.875 23.6375 24.875 22.125V20.75H12.5C11.7707 20.75 11.0712 20.4603 10.5555 19.9445C10.0397 19.4288 9.75 18.7293 9.75 18V18ZM13.875 7C13.1188 7 12.5 7.61875 12.5 8.375V16.625C12.5 17.3813 13.1188 18 13.875 18H26.25V7H13.875ZM18 14.5625C16.8588 14.5625 15.9375 13.6412 15.9375 12.5C15.9375 11.3588 16.8588 10.4375 18 10.4375C19.1413 10.4375 20.0625 11.3588 20.0625 12.5C20.0625 13.6412 19.1413 14.5625 18 14.5625Z" fill="white"/>
</svg>
