<svg width="21" height="20" viewBox="0 0 21 20" fill="none" xmlns="http://www.w3.org/2000/svg">
<path d="M10.0039 20C4.48091 20 0.00390625 15.523 0.00390625 10C0.00390625 4.477 4.48091 0 10.0039 0C15.5269 0 20.0039 4.477 20.0039 10C20.0039 15.523 15.5269 20 10.0039 20ZM6.50391 12V14H9.00391V16H11.0039V14H12.0039C12.6669 14 13.3028 13.7366 13.7717 13.2678C14.2405 12.7989 14.5039 12.163 14.5039 11.5C14.5039 10.837 14.2405 10.2011 13.7717 9.73223C13.3028 9.26339 12.6669 9 12.0039 9H8.00391C7.8713 9 7.74412 8.94732 7.65035 8.85355C7.55658 8.75979 7.50391 8.63261 7.50391 8.5C7.50391 8.36739 7.55658 8.24022 7.65035 8.14645C7.74412 8.05268 7.8713 8 8.00391 8H13.5039V6H11.0039V4H9.00391V6H8.00391C7.34087 6 6.70498 6.26339 6.23614 6.73223C5.7673 7.20108 5.50391 7.83696 5.50391 8.5C5.50391 9.16304 5.7673 9.79893 6.23614 10.2678C6.70498 10.7366 7.34087 11 8.00391 11H12.0039C12.1365 11 12.2637 11.0527 12.3575 11.1464C12.4512 11.2402 12.5039 11.3674 12.5039 11.5C12.5039 11.6326 12.4512 11.7598 12.3575 11.8536C12.2637 11.9473 12.1365 12 12.0039 12H6.50391Z" fill="#FF9F00"/>
</svg>
