<svg width="28" height="28" viewBox="0 0 28 28" fill="none" xmlns="http://www.w3.org/2000/svg">
<path fill-rule="evenodd" clip-rule="evenodd" d="M19.4485 15.3183C21.0468 16.4033 22.1668 17.8733 22.1668 19.8333V23.3333H25.6668C26.3085 23.3333 26.8335 22.8083 26.8335 22.1667V19.8333C26.8335 17.29 22.6685 15.785 19.4485 15.3183Z" fill="white"/>
<path d="M10.5002 14C13.0775 14 15.1668 11.9107 15.1668 9.33334C15.1668 6.75601 13.0775 4.66667 10.5002 4.66667C7.92283 4.66667 5.8335 6.75601 5.8335 9.33334C5.8335 11.9107 7.92283 14 10.5002 14Z" fill="white"/>
<path fill-rule="evenodd" clip-rule="evenodd" d="M17.5002 14C20.0785 14 22.1668 11.9117 22.1668 9.33334C22.1668 6.755 20.0785 4.66667 17.5002 4.66667C16.9518 4.66667 16.4385 4.78334 15.9485 4.94667C16.9168 6.14834 17.5002 7.67667 17.5002 9.33334C17.5002 10.99 16.9168 12.5183 15.9485 13.72C16.4385 13.8833 16.9518 14 17.5002 14Z" fill="white"/>
<path fill-rule="evenodd" clip-rule="evenodd" d="M10.5003 15.1667C7.38533 15.1667 1.16699 16.73 1.16699 19.8334V22.1667C1.16699 22.8084 1.69199 23.3334 2.33366 23.3334H18.667C19.3087 23.3334 19.8337 22.8084 19.8337 22.1667V19.8334C19.8337 16.73 13.6153 15.1667 10.5003 15.1667Z" fill="white"/>
</svg>
