<svg width="41" height="41" viewBox="0 0 41 41" fill="none" xmlns="http://www.w3.org/2000/svg">
<path d="M21.4312 0.89095C27.2572 0.89095 33.115 0.89095 38.941 0.89095C39.4186 0.89095 39.8643 0.922373 40.2463 1.20518C41.1059 1.80222 41.1695 2.93346 40.3736 3.68762C38.3043 5.73014 36.2031 7.77265 34.102 9.81516C23.8826 19.7763 13.6633 29.7375 3.44395 39.7301C3.03008 40.1386 2.55254 40.4529 1.91582 40.39C1.15176 40.3272 0.483203 39.7616 0.451367 39.0074C0.419531 37.342 0.419531 35.6765 0.451367 34.0111C0.451367 33.5397 0.801563 33.2255 1.08809 32.9427C7.42344 26.7209 13.7906 20.4677 20.126 14.2458C22.1953 12.2033 24.2646 10.1922 26.334 8.14973C26.4932 7.99261 26.7797 7.8355 26.6523 7.52126C26.525 7.20703 26.2066 7.3013 25.9838 7.3013C19.8713 7.3013 13.7588 7.3013 7.64629 7.3013C7.07324 7.3013 6.91406 7.48984 6.91406 8.05546C6.9459 11.6691 6.91406 15.3142 6.9459 18.9279C6.9459 19.525 6.75488 19.9649 6.34102 20.4048C4.9084 21.7874 3.47578 23.2015 2.075 24.5841C1.75664 24.8983 1.43828 25.1497 0.960742 24.9298C0.483203 24.7412 0.451367 24.3327 0.451367 23.8928C0.451367 17.3568 0.451367 10.7893 0.451367 4.25324C0.451367 2.24215 1.85215 0.89095 3.92148 0.89095C9.74746 0.859526 15.6053 0.89095 21.4312 0.89095Z" fill="white"/>
</svg>
