<svg width="41" height="40" viewBox="0 0 41 40" fill="none" xmlns="http://www.w3.org/2000/svg">
<path d="M20.1429 39.6691C14.317 39.6691 8.52282 39.6691 2.69684 39.6691C1.90095 39.6691 1.23239 39.4806 0.914033 38.695C0.595674 37.9409 0.882197 37.3124 1.45524 36.7468C13.6484 24.7745 25.8416 12.8022 38.0347 0.829955C38.8625 0.0129493 39.7857 -0.0498975 40.4861 0.641415C40.8045 0.955648 40.9636 1.33273 40.9636 1.80408C40.9636 3.12385 40.9318 4.47506 40.9636 5.79483C40.9955 6.61184 40.6771 7.24031 40.1041 7.83735C34.2463 13.5878 28.3884 19.3383 22.5306 25.0887C20.0156 27.5398 17.5324 30.0222 15.0174 32.4732C14.8582 32.6303 14.5398 32.756 14.699 33.1017C14.8582 33.3845 15.1447 33.2902 15.3994 33.2902C21.48 33.2902 27.5925 33.2902 33.6732 33.2902C34.4373 33.2902 34.4691 33.2588 34.4691 32.4732C34.4691 28.8595 34.4691 25.2458 34.4691 21.6636C34.4691 21.0666 34.6283 20.6266 35.074 20.2181C36.5384 18.8355 37.9392 17.4215 39.3718 15.976C39.6902 15.6617 40.0086 15.4104 40.4543 15.5989C40.9318 15.7874 40.9318 16.1959 40.9318 16.6359C40.9318 23.2033 40.9318 29.7708 40.9318 36.3383C40.9318 38.3179 39.5628 39.6691 37.589 39.6691C31.7949 39.6691 25.9689 39.6691 20.1429 39.6691Z" fill="white"/>
</svg>
