<svg width="693" height="676" viewBox="0 0 693 676" fill="none" xmlns="http://www.w3.org/2000/svg">
<g style="mix-blend-mode:overlay">
<path d="M680.712 6.01245L680.718 6.01693L680.724 6.02123C687.952 11.0395 691.816 18.2862 692.216 25.8482C692.616 33.4122 689.552 41.3308 682.843 47.6844L682.836 47.6916C647.449 82.6035 611.518 117.516 575.585 152.429L575.576 152.438L575.575 152.439L575.555 152.459C400.784 322.737 226.012 493.016 51.2401 663.832L51.2384 663.833C44.2004 670.777 36.1733 676.025 25.5036 674.972L25.4954 674.972C12.6211 673.913 1.44279 664.4 0.908158 651.819C0.363912 623.357 0.363948 594.895 0.908269 566.433H0.90836V566.423C0.90836 559.054 6.06874 553.991 10.811 549.339C11.0922 549.063 11.372 548.789 11.6491 548.515C65.8024 495.357 120.091 442.064 174.381 388.772C228.715 335.435 283.049 282.098 337.248 228.896L337.249 228.895C354.943 211.437 372.638 194.114 390.334 176.79C408.03 159.466 425.726 142.142 443.422 124.683C443.89 124.221 444.417 123.765 444.975 123.283C445.215 123.076 445.459 122.864 445.708 122.645C446.521 121.927 447.35 121.146 448.027 120.267C448.706 119.386 449.244 118.391 449.458 117.242C449.673 116.088 449.555 114.816 448.979 113.395C448.402 111.972 447.596 110.984 446.63 110.318C445.669 109.655 444.582 109.334 443.475 109.193C442.371 109.052 441.226 109.088 440.139 109.156C439.831 109.175 439.529 109.197 439.234 109.218C438.472 109.272 437.754 109.323 437.082 109.323H436.469H435.857H435.244H434.632H434.019H433.407H432.794H432.181H431.569H430.956H430.344H429.731H429.119H428.506H427.894H427.281H426.669H426.056H425.444H424.831H424.218H423.606H422.993H422.381H421.768H421.156H420.543H419.931H419.318H418.706H418.093H417.481H416.868H416.255H415.643H415.03H414.418H413.805H413.193H412.58H411.968H411.355H410.743H410.13H409.517H408.905H408.292H407.68H407.067H406.455H405.842H405.23H404.617H404.005H403.392H402.78H402.167H401.554H400.942H400.329H399.717H399.104H398.492H397.879H397.267H396.654H396.042H395.429H394.816H394.204H393.591H392.979H392.366H391.754H391.141H390.529H389.916H389.304H388.691H388.079H387.466H386.853H386.241H385.628H385.016H384.403H383.791H383.178H382.566H381.953H381.341H380.728H380.116H379.503H378.89H378.278H377.665H377.053H376.44H375.828H375.215H374.603H373.99H373.378H372.765H372.152H371.54H370.927H370.315H369.702H369.09H368.477H367.865H367.252H366.64H366.027H365.415H364.802H364.189H363.577H362.964H362.352H361.739H361.127H360.514H359.902H359.289H358.677H358.064H357.452H356.839H356.226H355.614H355.001H354.389H353.776H353.164H352.551H351.939H351.326H350.714H350.101H349.488H348.876H348.263H347.651H347.038H346.426H345.813H345.201H344.588H343.976H343.363H342.751H342.138H341.525H340.913H340.3H339.688H339.075H338.463H337.85H337.238H336.625H336.013H335.4H334.788H334.175H333.562H332.95H332.337H331.725H331.112H330.5H329.887H329.275H328.662H328.05H327.437H326.824H326.212H325.599H324.987H324.374H323.762H323.149H322.537H321.924H321.312H320.699H320.087H319.474H318.861H318.249H317.636H317.024H316.411H315.799H315.186H314.574H313.961H313.349H312.736H312.124H311.511H310.898H310.286H309.673H309.061H308.448H307.836H307.223H306.611H305.998H305.386H304.773H304.16H303.548H302.935H302.323H301.71H301.098H300.485H299.873H299.26H298.648H298.035H297.423H296.81H296.197H295.585H294.972H294.36H293.747H293.135H292.522H291.91H291.297H290.685H290.072H289.46H288.847H288.234H287.622H287.009H286.397H285.784H285.172H284.559H283.947H283.334H282.722H282.109H281.496H280.884H280.271H279.659H279.046H278.434H277.821H277.209H276.596H275.984H275.371H274.759H274.146H273.533H272.921H272.308H271.696H271.083H270.471H269.858H269.246H268.633H268.021H267.408H266.796H266.183H265.57H264.958H264.345H263.733H263.12H262.508H261.895H261.283H260.67H260.058H259.445H258.832H258.22H257.607H256.995H256.382H255.77H255.157H254.545H253.932H253.32H252.707H252.095H251.482H250.869H250.257H249.644H249.032H248.419H247.807H247.194H246.582H245.969H245.357H244.744H244.131H243.519H242.906H242.294H241.681H241.069H240.456H239.844H239.231H238.619H238.006H237.394H236.781H236.168H235.556H234.943H234.331H233.718H233.106H232.493H231.881H231.268H230.656H230.043H229.431H228.818H228.205H227.593H226.98H226.368H225.755H225.143H224.53H223.918H223.305H222.693H222.08H221.467H220.855H220.242H219.63H219.017H218.405H217.792H217.18H216.567H215.955H215.342H214.73H214.117H213.504H212.892H212.279H211.667H211.054H210.442H209.829H209.217H208.604H207.992H207.379H206.767H206.154H205.541H204.929H204.316H203.704H203.091H202.479H201.866H201.254H200.641H200.029H199.416H198.803H198.191H197.578H196.966H196.353H195.741H195.128H194.516H193.903H193.291H192.678H192.066H191.453H190.84H190.228H189.615H189.003H188.39H187.778H187.165H186.553H185.94H185.328H184.715H184.103H183.49H182.877H182.265H181.652H181.04H180.427H179.815H179.202H178.59H177.977H177.365H176.752H176.139H175.527H174.914H174.302H173.689H173.077H172.464H171.852H171.239H170.627H170.014H169.402H168.789H168.176H167.564H166.951H166.339H165.726H165.114H164.501H163.889H163.276H162.664H162.051H161.438H160.826H160.213H159.601H158.988H158.376H157.763H157.151H156.538H155.926H155.313H154.701H154.088H153.475H152.863H152.25H151.638H151.025H150.413H149.8H149.188H148.575H147.963H147.35H146.738H146.125H145.512H144.9H144.287H143.675H143.062H142.45H141.837H141.225H140.612H140H139.387H138.774H138.162H137.549H136.937H136.324H135.712H135.099H134.487H133.874H133.262H132.649H132.037H131.424H130.811H130.199H129.586H128.974H128.361H127.749H127.136H126.524H125.911H125.299H124.686H124.074H123.461C118.537 109.323 115.218 110.125 113.161 112.299C111.111 114.466 110.438 117.868 110.438 122.715L110.438 122.719C110.71 153.605 110.71 184.624 110.71 215.647C110.71 246.667 110.71 277.691 110.982 308.58C110.982 318.643 107.774 326.041 100.782 333.474C76.2806 357.109 51.78 381.281 27.8262 404.914L27.8257 404.914C25.1039 407.599 22.4416 409.953 19.4771 411.188C16.5471 412.408 13.2897 412.548 9.32916 410.725L9.31653 410.719L9.30359 410.714C5.35291 409.155 3.27762 406.709 2.16973 403.752C1.04828 400.758 0.90836 397.217 0.90836 393.452V392.798V392.143V391.488V390.833V390.179V389.524V388.869V388.214V387.56V386.905V386.25V385.595V384.94V384.285V383.631V382.976V382.321V381.666V381.011V380.356V379.701V379.046V378.391V377.736V377.081V376.426V375.771V375.116V374.461V373.806V373.151V372.496V371.841V371.186V370.531V369.876V369.221V368.566V367.911V367.256V366.6V365.945V365.29V364.635V363.98V363.325V362.669V362.014V361.359V360.704V360.048V359.393V358.738V358.083V357.427V356.772V356.117V355.461V354.806V354.151V353.495V352.84V352.185V351.529V350.874V350.219V349.563V348.908V348.252V347.597V346.942V346.286V345.631V344.975V344.32V343.664V343.009V342.353V341.698V341.042V340.387V339.731V339.076V338.42V337.765V337.109V336.453V335.798V335.142V334.487V333.831V333.175V332.52V331.864V331.209V330.553V329.897V329.242V328.586V327.93V327.275V326.619V325.963V325.308V324.652V323.996V323.34V322.685V322.029V321.373V320.717V320.062V319.406V318.75V318.094V317.439V316.783V316.127V315.471V314.815V314.16V313.504V312.848V312.192V311.536V310.88V310.225V309.569V308.913V308.257V307.601V306.945V306.289V305.633V304.978V304.322V303.666V303.01V302.354V301.698V301.042V300.386V299.73V299.074V298.418V297.762V297.106V296.45V295.794V295.138V294.482V293.826V293.17V292.514V291.858V291.202V290.546V289.89V289.234V288.578V287.922V287.266V286.61V285.954V285.298V284.642V283.986V283.33V282.674V282.018V281.361V280.705V280.049V279.393V278.737V278.081V277.425V276.769V276.113V275.457V274.8V274.144V273.488V272.832V272.176V271.52V270.864V270.207V269.551V268.895V268.239V267.583V266.927V266.271V265.614V264.958V264.302V263.646V262.99V262.333V261.677V261.021V260.365V259.709V259.053V258.396V257.74V257.084V256.428V255.772V255.115V254.459V253.803V253.147V252.49V251.834V251.178V250.522V249.866V249.209V248.553V247.897V247.241V246.584V245.928V245.272V244.616V243.96V243.303V242.647V241.991V241.335V240.678V240.022V239.366V238.71V238.053V237.397V236.741V236.085V235.428V234.772V234.116V233.46V232.803V232.147V231.491V230.835V230.178V229.522V228.866V228.209V227.553V226.897V226.241V225.584V224.928V224.272V223.616V222.959V222.303V221.647V220.991V220.334V219.678V219.022V218.366V217.709V217.053V216.397V215.741V215.084V214.428V213.772V213.116V212.459V211.803V211.147V210.491V209.834V209.178V208.522V207.866V207.209V206.553V205.897V205.241V204.584V203.928V203.272V202.616V201.96V201.303V200.647V199.991V199.335V198.678V198.022V197.366V196.71V196.054V195.397V194.741V194.085V193.429V192.773V192.116V191.46V190.804V190.148V189.492V188.835V188.179V187.523V186.867V186.211V185.555V184.898V184.242V183.586V182.93V182.274V181.618V180.961V180.305V179.649V178.993V178.337V177.681V177.025V176.368V175.712V175.056V174.4V173.744V173.088V172.432V171.776V171.12V170.464V169.807V169.151V168.495V167.839V167.183V166.527V165.871V165.215V164.559V163.903V163.247V162.591V161.935V161.279V160.623V159.967V159.311V158.655V157.999V157.343V156.687V156.031V155.375V154.719V154.063V153.407V152.751V152.095V151.439V150.783V150.127V149.471V148.815V148.159V147.503V146.847V146.191V145.535V144.88V144.224V143.568V142.912V142.256V141.6V140.944V140.288V139.633V138.977V138.321V137.665V137.009V136.353V135.698V135.042V134.386V133.73V133.074V132.419V131.763V131.107V130.451V129.796V129.14V128.484V127.828V127.173V126.517V125.861V125.206V124.55V123.894V123.239V122.583V121.927V121.272V120.616V119.96V119.305V118.649V117.993V117.338V116.682V116.027V115.371V114.715V114.06V113.404V112.749V112.093V111.438V110.782V110.127V109.471V108.816V108.16V107.505V106.849V106.194V105.538V104.883V104.227V103.572V102.917V102.261V101.606V100.95V100.295V99.6395V98.9842V98.3288V97.6735V97.0181V96.3628V95.7075V95.0522V94.3969V93.7416V93.0863V92.431V91.7758V91.1205V90.4653V89.81V89.1548V88.4996V87.8444V87.1892V86.534V85.8788V85.2237V84.5685V83.9134V83.2582V82.6031V81.948V81.2929V80.6378V79.9827V79.3277V78.6726V78.0176V77.3625V76.7075V76.0525V75.3975V74.7425V74.0875V73.4325V72.7776V72.1226V71.4677V70.8128V70.1578V69.5029V68.848V68.1932V67.5383V66.8834V66.2286V65.5738V64.9189V64.2641V63.6093V62.9545V62.2998V61.645V60.9902V60.3355V59.6808V59.0261V58.3714V57.7167C0.90836 40.6472 6.85314 26.4126 17.1585 16.4449C27.4652 6.47571 42.1713 0.738745 59.7567 0.738753L59.7594 0.738738C126.205 0.380521 192.89 0.50007 259.497 0.619478C292.771 0.679129 326.026 0.738745 359.221 0.738745H359.805H360.389H360.973H361.556H362.14H362.724H363.308H363.892H364.476H365.06H365.644H366.228H366.812H367.396H367.98H368.564H369.148H369.732H370.316H370.9H371.484H372.068H372.652H373.236H373.821H374.405H374.989H375.573H376.157H376.741H377.325H377.91H378.494H379.078H379.662H380.247H380.831H381.415H381.999H382.584H383.168H383.752H384.337H384.921H385.505H386.09H386.674H387.258H387.843H388.427H389.011H389.596H390.18H390.765H391.349H391.934H392.518H393.102H393.687H394.271H394.856H395.44H396.025H396.609H397.194H397.779H398.363H398.948H399.532H400.117H400.701H401.286H401.871H402.455H403.04H403.624H404.209H404.794H405.378H405.963H406.548H407.132H407.717H408.302H408.886H409.471H410.056H410.641H411.225H411.81H412.395H412.98H413.564H414.149H414.734H415.319H415.904H416.488H417.073H417.658H418.243H418.828H419.413H419.997H420.582H421.167H421.752H422.337H422.922H423.507H424.092H424.677H425.261H425.846H426.431H427.016H427.601H428.186H428.771H429.356H429.941H430.526H431.111H431.696H432.281H432.866H433.451H434.036H434.621H435.206H435.791H436.376H436.961H437.546H438.131H438.717H439.302H439.887H440.472H441.057H441.642H442.227H442.812H443.397H443.982H444.568H445.153H445.738H446.323H446.908H447.493H448.078H448.664H449.249H449.834H450.419H451.004H451.589H452.175H452.76H453.345H453.93H454.515H455.101H455.686H456.271H456.856H457.442H458.027H458.612H459.197H459.783H460.368H460.953H461.538H462.124H462.709H463.294H463.879H464.465H465.05H465.635H466.221H466.806H467.391H467.976H468.562H469.147H469.732H470.318H470.903H471.488H472.074H472.659H473.244H473.83H474.415H475H475.586H476.171H476.756H477.342H477.927H478.512H479.098H479.683H480.268H480.854H481.439H482.025H482.61H483.195H483.781H484.366H484.951H485.537H486.122H486.708H487.293H487.878H488.464H489.049H489.635H490.22H490.805H491.391H491.976H492.562H493.147H493.732H494.318H494.903H495.489H496.074H496.659H497.245H497.83H498.416H499.001H499.587H500.172H500.757H501.343H501.928H502.514H503.099H503.684H504.27H504.855H505.441H506.026H506.612H507.197H507.782H508.368H508.953H509.539H510.124H510.71H511.295H511.88H512.466H513.051H513.637H514.222H514.807H515.393H515.978H516.564H517.149H517.735H518.32H518.905H519.491H520.076H520.662H521.247H521.833H522.418H523.003H523.589H524.174H524.76H525.345H525.93H526.516H527.101H527.687H528.272H528.857H529.443H530.028H530.614H531.199H531.784H532.37H532.955H533.54H534.126H534.711H535.297H535.882H536.467H537.053H537.638H538.223H538.809H539.394H539.979H540.565H541.15H541.736H542.321H542.906H543.492H544.077H544.662H545.248H545.833H546.418H547.004H547.589H548.174H548.759H549.345H549.93H550.515H551.101H551.686H552.271H552.857H553.442H554.027H554.612H555.198H555.783H556.368H556.953H557.539H558.124H558.709H559.294H559.88H560.465H561.05H561.635H562.221H562.806H563.391H563.976H564.562H565.147H565.732H566.317H566.902H567.487H568.073H568.658H569.243H569.828H570.413H570.998H571.584H572.169H572.754H573.339H573.924H574.509H575.094H575.68H576.265H576.85H577.435H578.02H578.605H579.19H579.775H580.36H580.945H581.53H582.115H582.7H583.285H583.87H584.455H585.04H585.625H586.21H586.795H587.38H587.965H588.55H589.135H589.72H590.305H590.89H591.475H592.06H592.645H593.23H593.815H594.4H594.985H595.57H596.154H596.739H597.324H597.909H598.494H599.079H599.664H600.248H600.833H601.418H602.003H602.588H603.173H603.757H604.342H604.927H605.512H606.096H606.681H607.266H607.851H608.435H609.02H609.605H610.189H610.774H611.359H611.943H612.528H613.113H613.697H614.282H614.867H615.451H616.036H616.621H617.205H617.79H618.374H618.959H619.543H620.128H620.713H621.297H621.882H622.466H623.051H623.635H624.22H624.804H625.388H625.973H626.557H627.142H627.726H628.311H628.895H629.479H630.064H630.648H631.233H631.817H632.401H632.986H633.57H634.154H634.739H635.323H635.907H636.491H637.076H637.66H638.244H638.828H639.413H639.997H640.581H641.165H641.749H642.334H642.918H643.502H644.086H644.67H645.254H645.838H646.422H647.006H647.591H648.175H648.759H649.343H649.927H650.511H651.095H651.679H652.263H652.847H653.43H654.014H654.598H655.182H655.766H656.35H656.934H657.518H658.102H658.685C666.848 0.738745 674.321 1.28339 680.712 6.01245Z" stroke="white"/>
</g>
</svg>
